name 900006_25Moments.mot
datacolumns 7
datarows 54
range 0.18333334 0.62500000
endheader

                time	          RHipMoment	          LHipMoment	         RKneeMoment	         LKneeMoment	        RAnkleMoment	        LAnkleMoment	
          0.18333334	          7.13057375	        293.69451904	        -46.12362289	         22.29031563	         -7.58344126	         93.08607483	
          0.19166666	         10.15730572	        283.04855347	        -50.81499100	         26.95130730	         -7.22116184	        126.97961426	
          0.20000000	          6.57977104	        268.04370117	        -51.90049744	         30.63357925	         -6.88854980	        160.84561157	
          0.20833333	         -4.98143435	        241.32952881	        -47.61627960	         36.95434952	         -6.59012222	        196.57385254	
          0.21666667	        -21.40974808	        209.71588135	        -38.64841461	         43.99998856	         -6.31263494	        233.93426514	
          0.22499999	        -33.69187546	        188.49380493	        -29.43404388	         45.53391266	         -6.00100470	        272.96072388	
          0.23333333	        -35.84411240	        175.24787903	        -24.42242050	         44.96120453	         -5.59201288	        310.44515991	
          0.24166667	        -31.25898552	        168.01707458	        -24.56546402	         43.21617889	         -5.10243082	        346.70413208	
          0.25000000	        -24.94779968	        163.53144836	        -28.80854034	         39.70758057	         -4.65121365	        382.14990234	
          0.25833333	        -18.48723221	        159.58079529	        -35.76236343	         34.82186508	         -4.35401917	        415.93972778	
          0.26666665	        -13.99483681	        151.72099304	        -43.24990463	         30.40164566	         -4.21702099	        448.02441406	
          0.27500001	        -14.87244320	        143.44987488	        -48.70175934	         24.53080559	         -4.18107319	        478.90896606	
          0.28333333	        -20.62710953	        128.05754089	        -51.32218170	         22.14720154	         -4.24334717	        507.27169800	
          0.29166666	        -26.32350922	        112.57106018	        -52.60810471	         20.10566902	         -4.45561361	        534.05084229	
          0.30000001	        -27.31753349	        103.48161316	        -54.20639801	         16.59824181	         -4.80158138	        559.44012451	
          0.30833334	        -23.85737419	        100.47158813	        -56.11728287	         11.00433254	         -5.17572927	        583.61248779	
          0.31666666	        -18.93053627	         99.58553314	        -57.49872589	          6.06920719	         -5.50759172	        605.26782227	
          0.32499999	        -15.78628445	        101.04830933	        -57.27451324	         -0.77150756	         -5.80138779	        626.55548096	
          0.33333331	        -18.89279938	         99.50688934	        -54.08643341	         -6.90317106	         -6.02447462	        647.82354736	
          0.34166667	        -30.90191841	         94.69709015	        -47.97323227	        -13.53623104	         -6.09358549	        669.07763672	
          0.34999999	        -48.10736847	         91.33860779	        -41.65864563	        -24.03186035	         -6.03990364	        692.40447998	
          0.35833335	        -63.64327621	         83.21459961	        -38.42479706	        -33.02473450	         -6.08060598	        715.21862793	
          0.36666667	        -73.10771179	         71.42390442	        -39.27212524	        -39.64588165	         -6.41794014	        735.81109619	
          0.37500000	        -75.67846680	         61.76088333	        -43.09596252	        -47.62683868	         -7.03629780	        757.14361572	
          0.38333333	        -72.03327179	         55.97748184	        -48.59313202	        -55.95275497	         -7.77758646	        776.79736328	
          0.39166665	        -64.53511047	         52.90208054	        -54.10948944	        -64.53170013	         -8.50169373	        794.51495361	
          0.39999998	        -58.75239944	         51.14282227	        -57.06871414	        -72.82955933	         -9.09856033	        810.85168457	
          0.40833333	        -59.97790527	         50.45558548	        -55.98127365	        -82.11355591	         -9.46688366	        827.84747314	
          0.41666666	        -67.92790985	         42.49903488	        -52.15921783	        -87.68150330	         -9.58707809	        842.33050537	
          0.42500001	        -77.24178314	         34.99121475	        -48.39526749	        -93.87310791	         -9.57114792	        857.07067871	
          0.43333334	        -82.77711487	         29.26497841	        -46.32960892	       -101.03583527	         -9.56945992	        871.69384766	
          0.44166666	        -83.72724915	         22.87436867	        -45.50704193	       -107.08683777	         -9.64793968	        886.33276367	
          0.44999999	        -81.81044769	         20.41681480	        -45.05176163	       -114.88095093	         -9.79387760	        901.71496582	
          0.45833331	        -77.99504089	         16.54265785	        -44.71310806	       -120.60151672	         -9.97844505	        915.54180908	
          0.46666664	        -72.86218262	         14.19554234	        -44.30248642	       -127.03512573	        -10.16548443	        929.61376953	
          0.47500002	        -68.46044159	         10.36476994	        -43.44692993	       -133.38337708	        -10.31779003	        943.23022461	
          0.48333335	        -67.01923370	          3.69229937	        -42.02940369	       -138.72550964	        -10.42290974	        956.51513672	
          0.49166667	        -67.43607330	         -4.35585260	        -40.81246567	       -143.91386414	        -10.49382782	        968.68225098	
          0.50000000	        -65.92447662	        -16.23078346	        -40.98460770	       -146.83596802	        -10.53921890	        978.67852783	
          0.50833333	        -61.21813965	        -22.92484283	        -42.52561951	       -153.54261780	        -10.53692722	        989.35845947	
          0.51666665	        -55.65350723	        -40.73828125	        -44.23960876	       -153.54690552	        -10.46295929	        997.30151367	
          0.52499998	        -50.80454254	        -51.26623535	        -45.43267441	       -157.73947144	        -10.33959770	       1005.67376709	
          0.53333330	        -46.59341049	        -63.35868835	        -46.04489136	       -160.79547119	        -10.20807838	       1013.84436035	
          0.54166669	        -44.56682205	        -73.07607269	        -45.55395508	       -165.81959534	        -10.07386017	       1025.28393555	
          0.55000001	        -47.85107040	        -84.58012390	        -42.95578766	       -167.75338745	         -9.91533852	       1035.37097168	
          0.55833334	        -56.43530273	        -91.23879242	        -38.20714188	       -171.26515198	         -9.71188164	       1047.23376465	
          0.56666666	        -65.12498474	        -91.64820099	        -33.14238358	       -176.25003052	         -9.45529938	       1060.69091797	
          0.57499999	        -68.87606812	        -94.23837280	        -29.83195305	       -178.33567810	         -9.14876842	       1072.61083984	
          0.58333331	        -67.80323792	        -91.46236420	        -28.64456558	       -183.99291992	         -8.80469894	       1085.94323730	
          0.59166664	        -63.33194351	        -94.62721252	        -29.34216690	       -187.09434509	         -8.47652245	       1097.59692383	
          0.60000002	        -54.76392365	       -102.78605652	        -32.20362473	       -188.65998840	         -8.26461315	       1108.79333496	
          0.60833335	        -43.23611069	       -113.57295990	        -36.69449615	       -189.79585266	         -8.23193073	       1120.10803223	
          0.61666667	        -33.14893723	       -131.41662598	        -40.92399979	       -187.32109070	         -8.34424973	       1131.23278809	
          0.62500000	        -27.37135124	       -150.08326721	        -43.28997421	       -183.16510010	         -8.50584316	       1141.50622559	
